<svg xmlns="http://www.w3.org/2000/svg" viewBox="0 0 1440 1440">
  <style>
    path {
      fill: #000000;
    }
    @media (prefers-color-scheme: dark) {
      path {
        fill: #FFFFFF;
      }
    }
  </style>
  <path
    d="M 0,0 C 0,0.059 0.012,0.117 0.012,0.176 0.012,0.223 0,0.282 0,0.329 Z"
    fill-rule="nonzero"
    transform="matrix(1.3333333,0,0,-1.3333333,687.61587,748.63467)"
  />
  <path
    d="m 0,0 h 334.936 c 8.295,0 15.03,6.723 15.03,15.031 v 334.924 c 0,8.307 -6.735,15.03 -15.03,15.03 L 0,364.985 c -8.296,0 -15.031,-6.723 -15.031,-15.03 v -94.057 c 0,-8.307 6.735,-15.031 15.031,-15.031 h 210.806 c 8.12,0 14.714,-6.441 15.007,-14.491 h 0.024 v -87.814 c -0.317,-8.014 -6.9,-14.409 -14.996,-14.409 v -0.035 H 0 c -8.296,0 -15.031,-6.723 -15.031,-15.019 V 15.031 C -15.031,6.723 -8.296,0 0,0"
    fill-rule="nonzero"
    transform="matrix(1.3333333,0,0,-1.3333333,753.87467,680.15267)"
  />
  <path
    d="m 0,0 c 0.07,-17.589 0.176,-35.177 0.598,-52.754 0.458,-19.666 8.378,-36.105 22.247,-49.939 27.304,-27.221 54.479,-54.561 81.713,-81.841 3.356,-3.368 6.794,-6.653 10.056,-10.103 15.699,-16.615 35.072,-23.972 57.8,-23.89 51.135,0.2 102.281,0.106 153.428,0.118 8.495,0 16.99,-0.141 25.486,-0.012 h 0.645 c 7.568,0.223 13.67,6.207 14.068,13.728 v 1.526 c 0.024,31.34 0.024,62.669 0.024,93.998 v 0.211 c -0.059,7.955 -6.524,14.397 -14.503,14.397 H 226.564 c -7.545,-0.035 -15.089,-0.117 -22.622,-0.117 -8.343,0.011 -15.054,3.86 -20.816,9.422 -7.638,7.368 -15.042,14.983 -22.528,22.505 -8.284,8.307 -16.415,16.779 -24.864,24.91 -7.662,7.392 -11.522,15.946 -11.463,26.788 0.058,9.997 0.093,19.982 0.129,29.979 0.035,1.608 0.938,2.969 2.206,3.532 h 128.799 c 7.58,0.211 13.693,6.219 14.092,13.752 v 1.525 94.338 c 0,8.015 -6.5,14.503 -14.502,14.503 h -28.431 c -7.545,-0.035 -15.089,-0.117 -22.622,-0.117 -0.798,0 -1.584,0.047 -2.347,0.117 H 15.617 c 0.012,0 0.012,0 0.012,-0.012 -0.457,0.012 -0.927,0.012 -1.384,0.012 h -0.118 -0.105 c -7.909,-0.058 -14.315,-6.43 -14.421,-14.338 0,-0.071 -0.012,-0.129 -0.012,-0.2 0,-0.082 0.012,-0.152 0.012,-0.234 C -0.258,87.873 -0.176,43.931 0,0"
    fill-rule="nonzero"
    transform="matrix(1.3333333,0,0,-1.3333333,199.3524,388.94027)"
  />
  <path
    d="M 0,0 H -0.551 C -0.657,0 -0.763,-0.023 -0.88,-0.035 H -95.312 C -95.512,-0.023 -95.699,0 -95.887,0 h -0.012 c -8.014,0 -14.514,-6.512 -14.514,-14.526 v -4.048 c 0,-0.035 -0.012,-0.071 -0.012,-0.106 0.012,-2.077 0.012,-4.154 0.012,-6.23 v -62.541 h 0.047 v 0 c 0.023,-25.051 0.07,-50.09 0.211,-75.13 0.07,-10.842 -3.79,-19.407 -11.452,-26.788 -8.448,-8.143 -16.58,-16.603 -24.864,-24.91 -7.486,-7.521 -14.89,-15.136 -22.528,-22.505 -5.761,-5.562 -12.473,-9.422 -20.816,-9.422 -7.544,0 -15.077,0.07 -22.622,0.117 -15.019,0.071 -15.218,0.329 -15.16,15.665 0.258,70.378 0.493,140.744 0.728,211.122 0,0.153 0.023,0.317 0.023,0.47 0,0.14 -0.023,0.281 -0.023,0.422 -0.012,0.587 -0.082,1.173 -0.164,1.748 v 1.174 c 0,0.117 0.023,0.246 0.023,0.363 0,0.305 0.012,0.599 0.012,0.892 -0.012,0.153 -0.024,0.293 -0.035,0.434 -0.435,7.522 -6.501,13.506 -14.046,13.799 h -97.048 c -7.803,-0.305 -14.034,-6.676 -14.081,-14.538 0,-0.035 -0.011,-0.059 -0.011,-0.094 v -31.352 h 0.047 v -141.061 h 0.234 c 0,-55.184 -0.011,-110.355 0.024,-165.526 -0.2,-0.962 -0.305,-1.948 -0.305,-2.957 0,-1.033 0.117,-2.03 0.317,-2.992 1.255,-6.008 6.218,-10.631 12.378,-11.405 0.599,-0.082 1.209,-0.129 1.831,-0.129 0.528,0 1.044,0.023 1.549,0.082 8.143,-0.094 16.286,0.035 24.429,0.035 51.147,-0.024 102.294,0.082 153.429,-0.117 22.716,-0.083 42.1,7.263 57.799,23.877 3.262,3.45 6.7,6.736 10.056,10.103 27.222,27.292 54.409,54.632 81.713,81.842 13.869,13.834 21.789,30.273 22.247,49.938 0.422,17.589 0.528,35.178 0.598,52.755 0.082,21.366 0.153,42.722 0.211,64.088 h 0.188 v 72.925 C 14.526,-6.5 8.026,0 0,0"
    fill-rule="nonzero"
    transform="matrix(1.3333333,0,0,-1.3333333,668.2444,729.088)"
  />
  <path
    d="m 0,0 c -2.84,3.508 -6.078,6.7 -9.27,9.891 -35.576,35.6 -71.164,71.188 -106.811,106.706 -3.578,3.579 -7.603,6.711 -12.249,10.771 4.165,4.447 6.782,7.369 9.539,10.15 14.55,14.643 29.24,29.146 43.696,43.872 12.567,12.813 19.806,28.289 20.252,46.265 0.528,20.886 0.821,41.819 0.035,62.693 -1.549,41.431 -37.371,68.994 -73.124,68.583 -63.631,-0.704 -127.274,-0.106 -190.917,-0.071 -29.968,0.012 -59.923,0.012 -89.891,-0.011 -0.27,0.035 -0.54,0.07 -0.821,0.094 h -1.796 c -0.281,-0.024 -0.551,-0.059 -0.821,-0.094 -6.782,-0.798 -12.133,-6.242 -12.731,-13.083 -0.035,-0.423 -0.059,-0.845 -0.059,-1.279 v -0.012 c 0,-0.434 0.024,-0.868 0.059,-1.291 0.012,-7.063 0.024,-14.115 0.024,-21.167 V 3.837 c 0,-0.082 -0.012,-0.164 -0.012,-0.235 0,-0.082 0.012,-0.152 0.012,-0.234 0.011,-0.939 0.117,-1.866 0.305,-2.758 1.255,-6.007 6.218,-10.63 12.379,-11.405 0.598,-0.082 1.208,-0.129 1.83,-0.129 h 97.154 c 0.528,0 1.045,0.023 1.549,0.082 7.275,0.763 12.954,6.911 12.977,14.386 v 0.058 0.024 c 0.082,3.508 0.082,7.016 0.071,10.525 -0.059,44.4 -0.129,88.8 -0.2,133.211 v 74.978 c 0,0.129 0,0.258 0.012,0.376 0.27,9.492 1.584,10.724 11.018,10.736 29.698,0.047 59.395,0.023 89.093,-0.035 4.412,-0.012 8.812,-0.376 14.444,-0.634 -1.83,-2.136 -2.781,-3.403 -3.884,-4.517 -14.526,-14.656 -29.087,-29.276 -43.602,-43.943 -8.894,-8.964 -16.227,-19.137 -19.36,-31.422 -7.967,-31.282 -2.265,-59.372 21.073,-82.828 7.78,-7.815 15.641,-15.547 23.432,-23.338 16.815,-16.791 33.676,-33.511 50.349,-50.419 5.058,-5.128 10.502,-7.322 17.976,-7.24 42.417,0.434 84.846,0.293 127.275,0.34 2.264,0.012 4.752,-0.551 6.735,0.2 2.405,0.927 4.986,2.605 6.277,4.693 C 2.71,-4.588 1.255,-1.549 0,0"
    fill-rule="nonzero"
    transform="matrix(1.3333333,0,0,-1.3333333,1300.318,1207.7143)"
  />
</svg>